<svg xmlns="http://www.w3.org/2000/svg" viewBox="0 0 431.34 441.33" style="fill: rgb(0, 0, 0);" original_string_length="4245">
    <g>
        <path d="M426.34,441.33c-2.13,0-4.1-1.37-4.77-3.51c-12.8-40.96-37.79-103.17-84.19-167.03 c-3.27-3.71-43.01-48.95-54.22-67.62c-11.87-19.78-21.53-39.61-19.6-82.14c1.78-39.11-6.25-67.17-24.55-85.8 c-17.35-17.67-44.11-26.12-79.54-25.16c-13.75,0.38-26.82,5.09-36.81,13.26c-1.29,1.06-2.5,2.14-3.59,3.23 c-0.23,0.23-0.49,0.44-0.76,0.62c-0.7,0.47-17.28,11.49-32.44,19.1c-2.43,1.5-21.35,12.59-45.94,12.14 c-2.71-0.05-5.35-0.52-7.83-1.41c-6.73-2.39-12.63-1.85-16.62,1.51c-4.32,3.64-6.03,10.14-4.7,17.82c0.18,1.02,0.16,2.08-0.06,3.07 c-0.65,2.92-3.32,18.36,7.71,35.16c13.03,19.84,39.57,33.77,78.9,41.4c2.28,0.22,14.79,1.84,22.64,10.95 c4.72,5.47,6.81,12.42,6.22,20.64v43.26c0,2.76-2.24,5-5,5s-5-2.24-5-5v-43.45c0-0.13,0-0.26,0.01-0.38 c0.43-5.64-0.81-10.06-3.81-13.54c-5.7-6.62-16.02-7.53-16.12-7.54c-0.2-0.01-0.4-0.04-0.59-0.08 c-42.22-8.15-71.02-23.55-85.62-45.77C-2.69,100.6-0.04,82.19,0.88,77.68c-1.83-11.12,1.14-20.87,8.17-26.8 c6.72-5.66,16.34-6.86,26.41-3.29c1.47,0.52,3.04,0.8,4.67,0.83c22.69,0.44,40.45-10.62,40.63-10.73c0.14-0.09,0.29-0.17,0.44-0.25 c13.4-6.7,28.56-16.59,31.18-18.32c1.22-1.2,2.55-2.39,3.96-3.54c11.69-9.57,26.92-15.08,42.87-15.51 c38.32-1.06,67.57,8.42,86.95,28.15c20.35,20.72,29.31,51.22,27.4,93.26c-1.81,39.81,6.77,57.52,18.18,76.54 c10.97,18.29,52.88,65.85,53.3,66.33c0.1,0.12,0.2,0.24,0.29,0.37c47.29,65.02,72.75,128.4,85.79,170.12 c0.82,2.64-0.65,5.44-3.28,6.26C427.33,441.26,426.83,441.33,426.34,441.33z M202.5,167.25c7.93-0.4,22.58-2.26,31.56-10.11 c16.82-14.72,26.62-70.19,16.37-92.73c-1.14-2.52-4.11-3.63-6.62-2.48c-2.51,1.14-3.62,4.11-2.48,6.62 c8.38,18.44-0.29,69.2-13.85,81.06c-10.48,9.17-39.05,9.94-53.54,3.84c-4.81-2.02-8.83-4.69-11.95-7.92 c-11.8-12.22-9.85-31.79-6.13-46.05c5.44-20.87,15.7-40.99,29.68-58.18c1.74-2.14,1.42-5.29-0.73-7.03 c-2.14-1.74-5.29-1.42-7.03,0.73c-14.87,18.3-25.8,39.72-31.6,61.97c-6.26,24.01-3.28,43.21,8.61,55.52 c4.06,4.21,9.2,7.64,15.27,10.19c7.16,3.01,17.21,4.7,27.6,4.7C199.27,167.37,200.89,167.33,202.5,167.25z M144.58,50.71 c1.95-1.95,1.95-5.12,0-7.07c-1.95-1.95-5.12-1.95-7.07,0c-3.95,3.95-7.95,5.89-11.91,5.76c-6.22-0.2-10.87-5.36-11-5.5 c-1.8-2.08-4.94-2.31-7.03-0.52c-2.1,1.8-2.34,4.95-0.54,7.05c0.3,0.35,7.45,8.55,18.12,8.96c0.29,0.01,0.57,0.02,0.85,0.02 C132.56,59.41,138.8,56.49,144.58,50.71z" style="fill: #04A69F;"/>
    </g>
    <g>
        <path d="M123.16,441.33c-0.55,0-1.1-0.09-1.65-0.28c-2.61-0.91-3.98-3.76-3.07-6.37c2.44-7,4.25-14.2,5.39-21.41 c0.9-5.74-0.92-18.66-3.31-23.43c-4.89-9.78-13.07-14.86-20.43-18.54c-7.58-3.79-24.31-5.14-37.44-5.14 c-4.05,0-11.39-2-15.08-15.36c-0.36-1.3-1.11-3.1-2.65-4.33c-7.94-6.31-11.14-22.51-11.7-25.69 c-3.72-12.26,10.54-21.19,19.86-24.66c10.31-5.39,15.01-23.54,15.95-30.12c0.02-0.15,0.05-0.29,0.08-0.44 c3.06-12.99,13.33-23.71,26.17-27.31c6.48-1.82,12.34-1.55,18.01-1.29c1.97,0.09,4,0.18,6.02,0.18c6.79,0,15.56-2.48,18.42-7.08 c0.28-0.45,20.93-33.8,20.93-33.8c1.78-2.88,4.73-4.79,8.09-5.23c3.36-0.45,6.7,0.62,9.18,2.93c7.95,7.42,20.99,25.57,18.93,63.7 c-0.17,3.11,1.16,6.11,3.64,8.23c52.15,44.49,73.43,125.32,81.47,169.54c0.49,2.72-1.31,5.32-4.02,5.81 c-2.72,0.5-5.32-1.31-5.81-4.02c-7.8-42.91-28.33-121.24-78.12-163.72c-4.87-4.16-7.48-10.12-7.14-16.37 c0.63-11.77,0.37-40.78-15.77-55.85c-0.36-0.34-0.76-0.36-1.03-0.33c-0.27,0.04-0.65,0.17-0.91,0.59c0,0-20.65,33.35-20.93,33.81 c-5.8,9.32-19.64,11.8-26.91,11.8c-2.25,0-4.4-0.1-6.48-0.19c-5.32-0.24-9.92-0.46-14.85,0.93c-9.33,2.61-16.8,10.37-19.09,19.78 c-0.47,3.03-4.96,29.22-21.57,37.52c-0.17,0.09-0.35,0.16-0.53,0.23c-5.07,1.86-15.63,7.62-13.97,12.61 c0.08,0.25,0.15,0.5,0.19,0.76c1.08,6.43,4.31,16.84,8.12,19.87c2.89,2.3,4.99,5.58,6.07,9.5c1.07,3.88,3.06,8.02,5.44,8.02 c8.87,0,30.72,0.6,41.91,6.2c8.32,4.16,18.66,10.53,24.9,23.01c3.64,7.28,5.38,22.28,4.25,29.46c-1.23,7.79-3.19,15.58-5.82,23.14 C127.16,440.04,125.23,441.33,123.16,441.33z M114.35,290.08c1.95-1.95,1.95-5.12,0-7.07c-1.95-1.95-5.12-1.95-7.07,0 c-3.01,3.01-6.04,4.47-8.97,4.41c-4.63-0.14-8.17-4.03-8.28-4.15c-1.8-2.07-4.94-2.31-7.03-0.52c-2.1,1.8-2.34,4.95-0.54,7.05 c0.64,0.74,6.48,7.27,15.4,7.61c0.25,0.01,0.49,0.01,0.73,0.01C104.18,297.43,109.48,294.96,114.35,290.08z" style="fill: #04A69F;"/>
    </g>
</svg>